<?xml version="1.0" encoding="UTF-8" standalone="no"?> <svg width="64" height="64" viewBox="0 0 64 64" fill="none" xmlns="http://www.w3.org/2000/svg">
<path d="M25.3201 20.71H42.4601C42.8579 20.71 43.2394 20.5519 43.5207 20.2706C43.802 19.9893 43.9601 19.6078 43.9601 19.21C43.9601 18.8121 43.802 18.4306 43.5207 18.1493C43.2394 17.868 42.8579 17.71 42.4601 17.71H25.3201C24.9222 17.71 24.5407 17.868 24.2594 18.1493C23.9781 18.4306 23.8201 18.8121 23.8201 19.21C23.8201 19.6078 23.9781 19.9893 24.2594 20.2706C24.5407 20.5519 24.9222 20.71 25.3201 20.71Z" fill="black"/>
<path d="M33.7101 2.50001C28.7994 2.49686 23.9756 3.79499 19.7298 6.26222C15.484 8.72945 11.9677 12.2777 9.53905 16.5457C7.11036 20.8137 5.85596 25.649 5.90356 30.5594C5.95117 35.4698 7.29907 40.2799 9.81005 44.5L2.65005 59.35C2.5226 59.6299 2.48365 59.9421 2.53842 60.2447C2.5932 60.5473 2.73908 60.826 2.95655 61.0435C3.17403 61.261 3.45272 61.4069 3.75536 61.4616C4.058 61.5164 4.37015 61.4775 4.65005 61.35L19.5501 54.19C23.2287 56.3726 27.3616 57.6765 31.6268 58.0003C35.8919 58.324 40.1743 57.6588 44.1402 56.0565C48.1062 54.4542 51.6488 51.958 54.492 48.7623C57.3353 45.5666 59.4025 41.7577 60.5326 37.6323C61.6627 33.5069 61.8253 29.1762 61.0076 24.9777C60.1899 20.7791 58.4141 16.826 55.8184 13.4261C53.2228 10.0263 49.8773 7.27155 46.0426 5.37642C42.2079 3.48128 37.9875 2.49692 33.7101 2.50001V2.50001ZM33.7101 55.07C29.0121 55.0764 24.4106 53.7369 20.4501 51.21C20.2342 51.0767 19.9885 50.9996 19.7352 50.9856C19.482 50.9717 19.2292 51.0213 19.0001 51.13L7.21005 56.79L12.8701 45C12.9805 44.7695 13.0311 44.515 13.0171 44.2598C13.0032 44.0046 12.9251 43.757 12.7901 43.54C9.84981 38.8933 8.53865 33.4006 9.06305 27.9269C9.58745 22.4531 11.9176 17.3093 15.6866 13.3053C19.4556 9.30135 24.4493 6.66477 29.8814 5.81072C35.3135 4.95667 40.8754 5.93368 45.6912 8.58791C50.507 11.2421 54.3032 15.4228 56.4819 20.4715C58.6607 25.5203 59.0983 31.1503 57.7258 36.4751C56.3533 41.7999 53.2487 46.5169 48.9008 49.8833C44.553 53.2498 39.2089 55.0745 33.7101 55.07V55.07Z" fill="black"/>
<path d="M17.9301 28.3599H49.8601C50.2579 28.3599 50.6394 28.2018 50.9207 27.9205C51.202 27.6392 51.3601 27.2577 51.3601 26.8599C51.3601 26.462 51.202 26.0805 50.9207 25.7992C50.6394 25.5179 50.2579 25.3599 49.8601 25.3599H17.9301C17.5322 25.3599 17.1507 25.5179 16.8694 25.7992C16.5881 26.0805 16.4301 26.462 16.4301 26.8599C16.4301 27.2577 16.5881 27.6392 16.8694 27.9205C17.1507 28.2018 17.5322 28.3599 17.9301 28.3599Z" fill="black"/>
<path d="M49.8601 33H17.9301C17.5322 33 17.1507 33.158 16.8694 33.4393C16.5881 33.7206 16.4301 34.1022 16.4301 34.5C16.4301 34.8978 16.5881 35.2794 16.8694 35.5607C17.1507 35.842 17.5322 36 17.9301 36H49.8601C50.2579 36 50.6394 35.842 50.9207 35.5607C51.202 35.2794 51.3601 34.8978 51.3601 34.5C51.3601 34.1022 51.202 33.7206 50.9207 33.4393C50.6394 33.158 50.2579 33 49.8601 33V33Z" fill="black"/>
<path d="M42.4601 40.6401H25.3201C24.9222 40.6401 24.5407 40.7982 24.2594 41.0795C23.9781 41.3608 23.8201 41.7423 23.8201 42.1401C23.8201 42.538 23.9781 42.9195 24.2594 43.2008C24.5407 43.4821 24.9222 43.6401 25.3201 43.6401H42.4601C42.8579 43.6401 43.2394 43.4821 43.5207 43.2008C43.802 42.9195 43.9601 42.538 43.9601 42.1401C43.9601 41.7423 43.802 41.3608 43.5207 41.0795C43.2394 40.7982 42.8579 40.6401 42.4601 40.6401V40.6401Z" fill="black"/>
</svg>
